<svg class="svg-icon" style="width:1em;height:1em;vertical-align:middle;overflow:hidden" viewBox="0 0 1024 1024" xmlns="http://www.w3.org/2000/svg">
  <path d="M0 0h1024v1024H0z"/>
  <path fill="#1db954" d="M682.667 222.72v502.613c0 2.56-.214 4.992-.64 7.424a149.333 149.333 0 1 1-84.694-121.045V170.667a42.667 42.667 0 0 1 51.03-41.814l213.333 42.667A42.67 42.67 0 0 1 896 213.333V384a42.667 42.667 0 0 1-51.03 41.813l-74.367-14.848a42.667 42.667 0 1 1 16.725-83.669l23.339 4.693V248.32zM533.333 810.667a64 64 0 1 0 0-128 64 64 0 0 0 0 128M170.667 341.333a42.667 42.667 0 1 1 0-85.333h298.666a42.667 42.667 0 0 1 0 85.333zm0 170.667a42.667 42.667 0 0 1 0-85.333h298.666a42.667 42.667 0 0 1 0 85.333zm0 170.667a42.667 42.667 0 0 1 0-85.334h128a42.667 42.667 0 0 1 0 85.334z"/>
</svg>

